# xmcd CD database file
#
# Track frame offsets:
#	182
#	16825
#	30892
#	48040
#	63400
#	76387
#	94800
#	110407
#	123322
#	136950
#
# Disc length: 1991 seconds
#
# Revision: 0
# Processed by: cddbd v1.4PL0 Copyright (c) Steve Scherf et al.
# Submitted via: CDex 1.40Release
#
DISCID=7007c50a
DTITLE=Lowel Fulson - The Ol' Blues Singer
DYEAR=1900
DGENRE=Blues
TTITLE0=Do You Love Me
TTITLE1=Step At A Time
TTITLE2=Name Of The Game
TTITLE3=Walk On
TTITLE4=The Old Blues Singer
TTITLE5=Monday Morning Blues 
TTITLE6=Cloudy Day
TTITLE7=Just A Kiss
TTITLE8=Kansas City Bound
TTITLE9=Something's Wrong
EXTD=ID3G: 0
EXTT0=
EXTT1=
EXTT2=
EXTT3=
EXTT4=
EXTT5=
EXTT6=
EXTT7=
EXTT8=
EXTT9=
PLAYORDER=
